<?xml version="1.0" standalone="no"?>
<!DOCTYPE svg PUBLIC "-//W3C//DTD SVG 20010904//EN"
 "http://www.w3.org/TR/2001/REC-SVG-20010904/DTD/svg10.dtd">
<svg version="1.0" xmlns="http://www.w3.org/2000/svg"
 width="500.000000pt" height="500.000000pt" viewBox="0 0 500.000000 500.000000"
 preserveAspectRatio="xMidYMid meet">

<g transform="translate(0.000000,500.000000) scale(0.100000,-0.100000)"
fill="#000000" stroke="none">
<path d="M0 2500 l0 -2500 2500 0 2500 0 0 2500 0 2500 -2500 0 -2500 0 0
-2500z m2543 1606 c74 -14 154 -42 146 -51 -3 -2 -30 2 -61 10 -31 8 -114 23
-184 34 l-129 19 77 1 c42 0 110 -5 151 -13z m-254 0 c-12 -12 -219 -72 -228
-66 -15 9 27 27 114 50 65 18 124 26 114 16z m-255 -92 c9 -22 2 -27 -36 -29
-34 -1 -78 -20 -78 -33 0 -14 78 -12 90 3 10 12 15 9 31 -22 20 -39 17 -53
-10 -53 -9 0 -22 -5 -28 -11 -13 -13 -70 -3 -80 15 -5 7 -21 17 -37 23 l-30 9
33 29 c31 28 119 84 132 85 4 0 10 -7 13 -16z m812 -30 c143 -96 227 -186 309
-329 48 -85 99 -229 93 -266 -3 -21 -5 -19 -17 16 -17 49 -44 86 -84 115 -26
20 -32 21 -41 8 -6 -8 -18 -17 -27 -20 -12 -5 -15 -20 -14 -64 1 -59 -14 -94
-40 -94 -6 0 -21 -21 -34 -47 -49 -101 -162 -219 -289 -301 l-61 -39 24 -23
c26 -24 33 -54 15 -65 -5 -3 -10 -11 -10 -16 0 -5 10 -3 23 6 19 12 30 13 58
3 69 -22 79 -28 79 -45 0 -9 -10 -27 -22 -40 -13 -14 -34 -48 -48 -76 -17 -36
-36 -58 -60 -71 -19 -10 -48 -38 -63 -62 -15 -24 -37 -46 -47 -49 -11 -4 -20
-12 -20 -20 0 -7 -15 -22 -32 -34 -18 -11 -43 -28 -56 -37 -18 -13 -25 -14
-37 -4 -17 14 -20 46 -6 54 5 4 15 38 22 78 l13 71 -37 31 c-20 17 -47 54 -60
82 -20 44 -26 50 -41 42 -41 -23 -204 -48 -306 -46 l-105 1 120 8 c159 10 315
45 315 71 0 5 9 21 20 35 11 14 20 33 20 42 0 26 -20 42 -40 31 -17 -9 -80 23
-80 41 0 5 -20 18 -45 30 -25 12 -45 25 -45 30 0 5 -12 6 -27 4 -37 -6 -117
34 -121 60 -2 11 -24 45 -48 77 -24 31 -44 61 -44 67 0 6 -4 11 -10 11 -17 0
-11 -20 21 -79 l31 -56 -34 35 c-19 19 -33 36 -32 38 5 8 -30 79 -51 102 -38
42 -45 66 -43 144 1 52 -3 80 -13 93 -13 16 -12 17 4 4 9 -7 17 -20 17 -27 0
-8 5 -14 10 -14 26 0 4 47 -30 65 -17 9 -30 25 -33 45 -8 38 -54 87 -69 72 -6
-6 -16 -8 -23 -6 -6 3 -30 -15 -53 -40 -42 -45 -52 -66 -32 -66 6 0 4 -12 -4
-29 -36 -68 -58 -177 -63 -306 -8 -193 -9 -217 -1 -255 6 -31 6 -30 -6 6 -8
23 -19 82 -26 132 -21 161 11 324 95 492 66 131 183 279 207 263 7 -4 36 -8
63 -9 28 0 69 -4 93 -9 35 -6 42 -5 42 9 0 12 10 16 40 16 29 0 40 4 40 15 0
18 12 19 28 3 9 -9 12 -8 12 5 0 10 -11 28 -24 40 l-24 22 23 11 c21 10 24 9
30 -13 7 -28 62 -65 88 -59 12 3 17 -2 17 -19 0 -13 7 -25 15 -29 22 -8 18
-23 -7 -30 -30 -7 -45 8 -28 29 10 13 9 15 -9 15 -14 0 -21 -6 -21 -19 0 -10
-11 -26 -24 -35 -34 -22 -43 -69 -19 -98 10 -13 25 -25 33 -27 77 -21 99 -34
105 -63 9 -39 41 -35 37 5 -1 15 5 38 14 52 15 23 15 27 -2 53 -10 15 -18 41
-18 57 -1 27 2 30 29 27 17 -2 43 -15 58 -30 28 -26 29 -26 42 -8 8 10 16 23
18 29 5 17 26 -2 48 -45 15 -29 24 -37 31 -30 11 11 20 5 86 -49 10 -8 5 -16
-23 -35 -20 -13 -46 -24 -59 -24 -12 0 -33 -12 -47 -26 l-24 -27 33 17 c31 16
32 16 32 -5 0 -17 5 -20 25 -17 36 7 41 -8 9 -28 -21 -14 -27 -15 -34 -4 -13
21 -64 -15 -57 -40 3 -14 -1 -20 -17 -22 -13 -2 -22 -11 -24 -25 -2 -13 -10
-23 -18 -23 -9 0 -14 -11 -14 -31 0 -22 -11 -44 -36 -71 -19 -22 -33 -46 -30
-53 3 -8 8 -30 12 -49 9 -48 -11 -47 -33 2 -16 32 -23 37 -56 40 -23 2 -37 -1
-37 -8 0 -8 -9 -10 -24 -6 -16 4 -32 -1 -50 -15 -22 -17 -26 -29 -26 -68 0
-51 28 -101 56 -101 8 0 28 14 44 31 36 41 55 31 35 -18 -8 -19 -15 -37 -15
-39 0 -1 15 -4 33 -6 26 -2 32 -7 34 -28 0 -14 1 -30 2 -36 1 -6 22 -14 48
-17 41 -4 52 -1 77 20 17 14 32 21 33 17 2 -5 28 -8 58 -8 30 1 58 -2 60 -7 6
-9 54 16 124 64 122 84 291 286 272 325 -48 98 -46 93 -28 103 35 20 11 63
-59 105 -17 10 -15 13 20 28 38 16 39 17 34 61 -4 30 -1 48 8 56 7 6 11 16 9
22 -6 17 21 50 34 42 24 -14 8 12 -31 52 -51 52 -67 56 -39 9 25 -39 29 -65 7
-47 -7 6 -20 9 -29 5 -10 -3 -18 2 -22 15 -3 12 -13 21 -21 21 -8 0 -19 12
-25 28 -25 68 -45 95 -86 114 -50 22 -69 44 -29 34 19 -5 26 -3 26 9 0 23 10
19 86 -31z m-560 24 c3 -4 12 -8 21 -8 8 0 26 -9 40 -20 14 -11 43 -25 64 -30
38 -11 49 -23 29 -35 -5 -3 -7 -12 -3 -20 6 -17 -12 -21 -22 -5 -8 12 -25 13
-25 2 0 -5 11 -14 25 -20 14 -6 25 -19 25 -28 0 -12 -6 -14 -32 -9 -18 4 -38
11 -44 16 -5 4 -20 6 -32 2 -16 -4 -22 -1 -22 10 0 8 4 17 9 19 5 2 7 15 4 29
-5 29 -41 43 -82 32 -12 -3 -21 -1 -21 6 0 6 -6 11 -14 11 -9 0 -12 -7 -9 -20
6 -24 -4 -26 -29 -3 -26 23 -22 50 10 67 28 16 99 19 108 4z m621 -321 c27
-26 35 -39 29 -53 -7 -19 -8 -19 -21 0 -13 17 -15 17 -21 3 -8 -21 -24 -12
-24 14 0 10 -4 19 -9 19 -5 0 -8 11 -8 25 0 33 10 32 54 -8z m719 15 c33 -5
70 -14 82 -21 11 -6 36 -11 55 -11 20 0 50 -11 73 -26 65 -44 154 -125 154
-140 0 -20 -29 -30 -49 -16 -90 64 -188 100 -222 81 -11 -5 -19 -14 -19 -19 0
-5 -4 -20 -9 -33 l-10 -25 -55 16 c-54 15 -55 15 -58 56 -4 54 -26 64 -178 78
-65 7 -117 15 -115 19 5 6 130 42 185 52 28 6 78 2 166 -11z m-2106 -51 c0 -5
-17 -15 -37 -22 -106 -34 -203 -72 -203 -79 0 -5 57 11 127 35 70 25 128 43
130 41 2 -2 -7 -19 -19 -39 -20 -30 -37 -40 -114 -67 -55 -19 -100 -29 -115
-25 -15 3 -36 -2 -56 -14 -25 -16 -32 -28 -35 -58 -3 -36 -10 -43 -113 -120
-60 -45 -114 -81 -120 -79 -12 3 -124 187 -125 203 0 7 57 42 128 77 121 61
129 63 155 50 23 -13 31 -12 64 2 21 9 92 36 158 59 117 43 175 54 175 36z
m1130 -11 c0 -6 11 -15 25 -20 41 -16 32 -39 -15 -37 -41 1 -44 6 -34 45 6 22
24 31 24 12z m530 -214 c0 -16 -3 -15 -20 7 -11 14 -20 33 -20 44 0 15 3 14
20 -7 11 -14 20 -33 20 -44z m476 51 c3 -3 -4 -70 -15 -148 -65 -453 -131
-917 -131 -922 0 -8 -27 3 -72 32 -21 13 -38 29 -38 35 0 13 49 289 120 676
22 118 42 244 46 279 l7 63 39 -5 c22 -3 42 -7 44 -10z m-416 -166 c0 -25 3
-28 21 -24 22 6 22 6 16 -133 -6 -157 -23 -227 -89 -359 -46 -94 -93 -158
-174 -239 -56 -56 -220 -173 -230 -164 -2 3 38 37 90 76 109 84 158 144 216
264 46 99 50 143 12 143 -30 0 -52 44 -52 106 0 26 -4 50 -9 54 -15 9 -6 79
17 126 11 24 23 60 26 80 8 48 54 85 98 80 9 -1 19 3 23 9 13 21 35 10 35 -19z
m-1590 -51 c0 -5 -5 -10 -11 -10 -5 0 -7 5 -4 10 3 6 8 10 11 10 2 0 4 -4 4
-10z m30 -26 c0 -8 -4 -12 -10 -9 -5 3 -10 13 -10 21 0 8 5 12 10 9 6 -3 10
-13 10 -21z m-295 -18 c36 -19 40 -25 37 -56 -2 -19 -12 -50 -23 -69 l-20 -33
24 -52 c14 -28 32 -73 41 -101 9 -27 39 -93 66 -145 108 -204 106 -200 90
-210 -39 -25 -49 -13 -130 155 -44 91 -96 193 -117 227 l-38 61 -58 -64 c-73
-79 -122 -167 -157 -277 -30 -98 -59 -129 -105 -118 -45 11 -75 50 -75 95 0
37 4 42 58 78 61 42 158 165 167 212 3 14 21 58 41 96 25 49 34 78 29 95 -4
18 4 41 31 83 34 55 38 58 68 52 17 -4 49 -17 71 -29z m239 -71 c-4 -9 -12 -6
-31 11 -22 20 -25 52 -3 39 5 -3 12 0 16 7 9 15 25 -37 18 -57z m786 -21 c41
-17 53 -34 23 -34 -10 1 -29 7 -43 15 -14 8 -38 14 -53 15 -16 0 -26 4 -22 10
9 15 49 12 95 -6z m114 -33 c18 -7 16 -9 -14 -19 -38 -14 -43 -12 -34 12 7 17
18 19 48 7z m411 -60 c-3 -6 -11 -11 -17 -11 -6 0 -6 6 2 15 14 17 26 13 15
-4z m945 -50 c0 -56 41 -105 81 -96 23 5 29 3 29 -11 0 -29 39 -82 70 -93 l30
-10 -14 -39 c-20 -56 -41 -95 -72 -131 l-26 -32 -62 58 c-33 32 -63 62 -65 66
-1 5 5 17 15 28 17 19 17 21 -4 64 -12 24 -35 63 -52 86 -16 23 -30 46 -30 50
0 4 15 9 33 11 29 3 33 7 41 46 11 53 26 55 26 3z m-2155 19 c4 -6 4 -18 1
-26 -5 -12 -9 -12 -26 -2 -30 19 -33 38 -5 38 13 0 27 -5 30 -10z m147 -40
c11 0 15 -5 12 -15 -4 -8 -1 -15 5 -15 15 0 32 -46 24 -65 -5 -14 -9 -13 -28
5 -12 11 -24 17 -28 14 -9 -10 -67 52 -67 72 0 14 3 15 12 6 17 -17 28 -15 28
5 0 13 3 14 12 5 7 -7 20 -12 30 -12z m1922 -101 c15 -17 36 -49 47 -71 l20
-39 -21 -35 -22 -34 -34 30 c-48 42 -83 58 -143 66 l-52 7 6 41 c16 106 7 97
110 114 49 8 50 7 56 -20 3 -15 18 -41 33 -59z m-2214 6 c0 -5 -5 -3 -10 5 -5
8 -10 20 -10 25 0 6 5 3 10 -5 5 -8 10 -19 10 -25z m90 -35 c23 -44 46 -65 35
-31 -10 31 -2 26 34 -24 32 -44 59 -61 47 -28 -4 9 14 -3 39 -25 60 -56 88
-57 45 -2 -39 49 -26 53 20 5 34 -35 77 -49 175 -58 35 -3 33 -4 -12 -5 -46
-2 -53 -5 -53 -22 0 -23 36 -26 109 -9 42 9 62 6 48 -7 -3 -4 -17 -8 -29 -10
-13 -2 -41 -8 -63 -13 -35 -8 -37 -10 -17 -16 37 -12 25 -25 -23 -25 -25 0
-45 -4 -45 -10 0 -5 7 -10 15 -10 22 0 65 -22 65 -33 0 -6 12 -26 26 -45 22
-28 24 -36 13 -44 -20 -13 -112 -1 -125 17 -12 16 -29 21 -19 5 3 -5 -19 5
-49 22 -71 41 -164 134 -150 148 8 8 15 6 24 -5 11 -13 10 -14 -6 -8 -12 4 -6
-6 15 -25 18 -18 37 -30 41 -27 12 8 32 -23 24 -37 -5 -10 -4 -10 6 -1 8 8 20
9 36 3 14 -6 24 -6 24 0 0 5 -9 12 -20 15 -11 4 -18 10 -15 15 3 5 13 6 22 3
12 -5 10 0 -5 15 -27 27 -33 28 -25 5 5 -15 3 -14 -10 2 -8 11 -13 24 -10 29
4 5 1 6 -5 2 -8 -5 -12 1 -12 17 0 14 -8 31 -17 38 -15 11 -16 11 -5 -1 6 -8
12 -25 11 -40 l-1 -25 -7 25 c-5 14 -14 24 -22 22 -41 -11 -49 -10 -49 4 0 8
4 13 8 10 4 -2 8 4 8 14 0 13 -4 16 -12 10 -6 -6 -13 -8 -16 -5 -2 3 -2 -10 0
-28 5 -29 3 -31 -12 -18 -22 18 -97 134 -91 140 3 2 14 -5 25 -17 18 -20 40
-29 40 -18 0 3 -32 73 -68 150 -3 5 1 6 7 2 6 -4 20 -25 31 -46z m1753 -41
c-12 -52 -21 -68 -72 -117 -32 -32 -70 -81 -85 -110 -21 -41 -31 -52 -51 -52
-13 0 -36 -5 -50 -10 -24 -9 -26 -8 -20 12 15 50 81 156 129 207 53 56 142
131 156 131 4 0 1 -27 -7 -61z m-1225 -131 c8 -8 15 -8 28 3 15 12 17 12 12
-1 -5 -16 -41 -25 -64 -16 -9 3 -12 10 -9 16 8 13 18 13 33 -2z m1640 -60 c-2
-12 -8 -23 -14 -25 -7 -2 -10 6 -7 22 6 30 26 34 21 3z m-2376 -56 c-10 -3
-10 -8 2 -21 14 -15 11 -21 -28 -65 l-43 -49 -74 -3 c-41 -1 -102 2 -136 8
l-61 11 -4 43 c-2 32 0 40 9 33 19 -16 95 -20 125 -7 15 7 32 23 39 35 15 28
29 29 60 4 13 -10 34 -21 47 -25 19 -6 23 -3 28 22 5 24 10 29 27 24 13 -3 16
-7 9 -10z m-32 -487 c0 -24 -2 -25 -75 -25 l-75 0 0 -40 0 -40 70 0 c68 0 70
-1 70 -25 0 -24 -2 -25 -70 -25 l-70 0 0 -40 0 -40 75 0 c73 0 75 -1 75 -25
l0 -25 -100 0 -100 0 0 155 0 155 100 0 100 0 0 -25z m510 -15 c0 -33 3 -40
20 -40 13 0 20 -7 20 -20 0 -13 -7 -20 -20 -20 -18 0 -20 -7 -20 -75 0 -68 2
-75 20 -75 13 0 20 -7 20 -20 0 -15 -7 -20 -29 -20 -49 0 -61 21 -61 111 0 64
-3 79 -15 79 -8 0 -15 9 -15 20 0 11 7 20 15 20 11 0 15 11 15 40 0 36 3 40
25 40 23 0 25 -4 25 -40z m130 -16 c0 -55 0 -55 22 -40 32 23 65 20 93 -9 23
-22 25 -32 25 -115 0 -89 0 -90 -25 -90 -25 0 -25 1 -25 89 0 72 -3 90 -16 95
-54 21 -74 -7 -74 -105 0 -78 0 -79 -25 -79 l-25 0 0 155 0 155 25 0 c24 0 25
-3 25 -56z m496 22 c19 -19 34 -39 34 -45 0 -20 -42 -11 -66 14 -30 32 -77 34
-98 3 -14 -20 -14 -24 0 -39 9 -10 30 -21 48 -25 120 -26 161 -91 97 -155 -25
-24 -37 -29 -81 -29 -76 0 -130 35 -130 84 0 26 30 18 60 -14 32 -35 82 -40
112 -13 38 34 12 63 -79 88 -73 21 -85 32 -85 82 0 54 36 83 104 83 44 0 54
-4 84 -34z m1034 -22 c0 -55 0 -55 22 -40 32 23 65 20 93 -9 23 -22 25 -32 25
-115 0 -89 0 -90 -25 -90 -25 0 -25 1 -25 83 0 85 -8 107 -41 107 -37 0 -49
-28 -49 -111 0 -78 0 -79 -25 -79 l-25 0 0 155 0 155 25 0 c24 0 25 -3 25 -56z
m-1966 -45 c25 -19 26 -25 26 -115 0 -87 -1 -94 -20 -94 -12 0 -20 7 -20 17 0
15 -1 15 -18 0 -43 -39 -132 -8 -132 45 0 35 29 57 91 70 33 7 59 17 59 23 0
33 -57 47 -84 20 -16 -16 -56 -21 -56 -6 0 5 14 21 31 35 38 32 86 34 123 5z
m126 5 c0 -14 2 -14 22 0 12 9 31 16 41 16 29 0 18 -43 -13 -50 -34 -8 -50
-44 -50 -117 0 -56 -2 -63 -20 -63 -19 0 -20 7 -20 115 0 108 1 115 20 115 11
0 20 -7 20 -16z m1044 6 c30 -11 66 -65 66 -97 0 -22 -4 -23 -85 -23 -89 0
-100 -7 -68 -42 20 -22 66 -24 83 -3 13 16 60 21 60 6 0 -5 -14 -21 -31 -35
-45 -38 -110 -37 -150 3 -24 25 -29 37 -29 78 1 26 7 59 14 72 25 45 84 63
140 41z m263 -14 c26 -23 28 -30 31 -115 l4 -91 -26 0 c-17 0 -26 5 -26 16 0
14 -1 14 -16 0 -23 -23 -89 -21 -114 4 -45 45 -14 94 70 112 60 12 71 23 48
46 -17 17 -48 15 -69 -4 -9 -8 -28 -14 -41 -12 -23 3 -23 3 9 36 40 41 88 44
130 8z m123 8 c0 -14 2 -14 22 0 12 9 31 16 41 16 29 0 18 -43 -13 -50 -34 -8
-50 -44 -50 -117 0 -56 -2 -63 -20 -63 -19 0 -20 7 -20 115 0 108 1 115 20
115 11 0 20 -7 20 -16z m278 -4 c17 -11 32 -27 32 -35 0 -20 -44 -20 -60 0
-19 23 -56 18 -79 -11 -42 -53 -17 -124 44 -124 21 0 37 6 43 16 6 10 19 14
38 12 l29 -3 -32 -32 c-60 -62 -159 -37 -184 46 -32 106 75 188 169 131z
m-1818 -398 c0 -41 5 -73 13 -81 10 -10 8 -12 -8 -9 -18 3 -20 12 -23 81 -2
48 1 77 8 77 6 0 10 -28 10 -68z m370 47 c0 -5 -4 -9 -10 -9 -5 0 -10 7 -10
16 0 8 5 12 10 9 6 -3 10 -10 10 -16z m320 -49 c0 -40 4 -70 10 -70 6 0 10 -4
10 -10 0 -20 -28 -9 -34 13 -10 36 -7 137 4 137 6 0 10 -30 10 -70z m822 -7
c4 -87 4 -88 -11 -78 -13 8 -15 155 -2 155 5 0 11 -35 13 -77z m-1872 57 c0
-5 -16 -10 -35 -10 -28 0 -38 -5 -46 -24 -15 -32 -4 -72 22 -86 29 -16 49 -5
49 25 0 14 5 25 11 25 6 0 9 -14 7 -32 -3 -30 -6 -33 -40 -36 -69 -6 -102 64
-57 122 15 19 30 26 55 26 19 0 34 -4 34 -10z m1950 -14 c0 -8 10 -17 23 -19
l22 -4 -22 -8 c-32 -10 -34 -75 -3 -75 11 0 20 -5 20 -11 0 -6 -12 -9 -27 -7
-27 3 -28 5 -31 71 -2 42 1 67 8 67 5 0 10 -6 10 -14z m380 0 c0 -8 10 -17 23
-19 l22 -4 -22 -8 c-32 -10 -34 -75 -3 -75 11 0 20 -5 20 -11 0 -6 -12 -9 -27
-7 -27 3 -28 5 -31 71 -2 42 1 67 8 67 5 0 10 -6 10 -14z m-2190 -35 c17 -33
11 -41 -30 -41 -22 0 -40 -4 -40 -10 0 -14 37 -31 54 -24 9 3 16 1 16 -5 0
-17 -56 -13 -74 5 -34 34 -9 94 39 94 14 0 29 -8 35 -19z m138 7 c7 -7 12 -26
12 -43 0 -17 -5 -36 -12 -43 -29 -29 -88 1 -88 44 0 44 58 72 88 42z m233 -12
c25 -53 -24 -108 -70 -79 -20 12 -27 69 -10 89 19 24 68 18 80 -10z m144 -44
c0 -69 -9 -82 -57 -82 -39 0 -35 18 4 22 42 4 50 28 9 28 -30 0 -51 22 -51 54
0 26 31 47 64 44 l31 -3 0 -63z m75 13 c0 -30 -4 -55 -10 -55 -5 0 -10 25 -10
55 0 30 5 55 10 55 6 0 10 -25 10 -55z m130 45 c0 -5 -7 -7 -15 -4 -21 9 -45
-14 -45 -42 0 -24 26 -45 48 -37 6 3 12 0 12 -7 0 -7 -13 -10 -32 -8 -65 6
-63 108 2 108 16 0 30 -4 30 -10z m118 -48 l3 -53 -38 3 c-31 2 -39 7 -41 26
-3 18 3 26 27 35 35 13 36 32 2 31 -11 0 -21 3 -21 8 0 5 15 8 33 6 31 -3 32
-4 35 -56z m277 48 c-4 -6 -10 -8 -15 -5 -18 11 -40 -8 -40 -36 0 -29 24 -50
48 -42 6 3 12 0 12 -6 0 -15 -53 -14 -68 1 -7 7 -12 26 -12 43 0 17 5 36 12
43 15 15 72 16 63 2z m136 -14 c25 -53 -24 -108 -70 -79 -20 12 -27 69 -10 89
19 24 68 18 80 -10z m139 5 c13 -25 13 -91 0 -91 -5 0 -10 17 -10 38 0 39 -14
62 -37 62 -9 0 -13 -16 -13 -50 0 -27 -4 -50 -10 -50 -5 0 -10 25 -10 55 l0
55 35 0 c24 0 37 -6 45 -19z m120 8 c0 -5 -5 -7 -10 -4 -6 4 -19 4 -28 0 -14
-5 -12 -11 17 -34 43 -35 37 -61 -14 -61 -19 0 -35 5 -35 10 0 6 10 8 24 4 24
-6 51 16 28 24 -29 9 -53 38 -47 55 8 19 65 25 65 6z m72 -31 c2 -36 7 -44 26
-46 20 -3 22 1 22 42 0 25 5 46 10 46 6 0 10 -25 10 -55 l0 -55 -35 0 c-29 0
-37 5 -45 26 -13 32 -13 84 -1 84 6 0 11 -19 13 -42z m386 -15 l3 -53 -35 0
c-44 0 -65 29 -40 54 8 9 24 16 36 16 11 0 18 5 15 13 -2 6 -14 12 -26 11 -11
0 -21 3 -21 8 0 5 15 8 33 6 31 -3 32 -4 35 -55z m140 0 c2 -31 -1 -53 -7 -53
-5 0 -11 21 -13 48 -3 39 -6 47 -23 47 -17 0 -20 -8 -23 -47 -2 -27 -7 -48
-13 -48 -10 0 -13 93 -2 104 4 4 23 6 43 4 35 -3 35 -3 38 -55z m222 48 c0 -5
-9 -7 -20 -4 -30 8 -25 -25 6 -37 39 -15 30 -54 -13 -58 -19 -2 -33 1 -33 7 0
6 10 10 21 8 32 -3 35 21 5 33 -25 9 -35 38 -19 53 10 10 53 8 53 -2z"/>
<path d="M981 3477 c-57 -29 -103 -57 -102 -62 1 -16 83 -155 91 -155 14 0
195 143 198 156 4 17 -34 95 -52 106 -18 12 -27 10 -135 -45z"/>
<path d="M3576 3268 c-36 -211 -43 -259 -36 -263 8 -5 30 103 53 263 8 50 11
92 7 92 -4 0 -15 -42 -24 -92z"/>
<path d="M1305 3143 c-31 -44 -33 -49 -18 -60 25 -19 30 -17 63 29 34 46 37
63 14 72 -23 9 -21 10 -59 -41z"/>
<path d="M1206 2985 c-51 -83 -51 -85 -33 -85 16 0 109 138 102 151 -12 18
-23 8 -69 -66z"/>
<path d="M950 2645 c-29 -35 40 -104 75 -75 21 17 19 46 -5 70 -24 24 -53 26
-70 5z"/>
<path d="M1785 2670 c-3 -5 -1 -10 4 -10 6 0 11 5 11 10 0 6 -2 10 -4 10 -3 0
-8 -4 -11 -10z"/>
<path d="M1872 2498 c5 -15 28 -23 28 -10 0 5 -7 13 -16 16 -10 4 -14 1 -12
-6z"/>
<path d="M1574 1871 c-43 -11 -54 -19 -54 -41 0 -23 33 -35 59 -20 21 11 41
40 41 59 0 12 -2 12 -46 2z"/>
<path d="M2716 1944 c-27 -27 -18 -34 44 -34 63 0 71 7 42 33 -23 21 -66 22
-86 1z"/>
<path d="M3004 1871 c-58 -14 -72 -40 -34 -61 32 -17 80 14 80 53 0 18 0 18
-46 8z"/>
<path d="M1370 1575 c-11 -13 -8 -15 20 -15 28 0 31 2 20 15 -7 8 -16 15 -20
15 -4 0 -13 -7 -20 -15z"/>
<path d="M1512 1578 c-29 -29 -1 -84 36 -71 18 7 15 70 -4 77 -20 8 -18 8 -32
-6z"/>
<path d="M1743 1583 c-16 -6 -17 -55 -1 -71 16 -16 48 4 48 31 0 13 -5 28 -12
35 -13 13 -16 13 -35 5z"/>
<path d="M1888 1579 c-22 -12 -23 -42 -3 -59 25 -20 47 -4 43 32 -3 35 -14 42
-40 27z"/>
<path d="M2212 1523 c5 -26 38 -29 38 -4 0 15 -6 21 -21 21 -14 0 -19 -5 -17
-17z"/>
<path d="M2622 1578 c-29 -29 -4 -85 30 -67 28 15 18 79 -12 79 -3 0 -11 -5
-18 -12z"/>
<path d="M3337 1533 c-9 -9 12 -33 29 -33 8 0 14 9 14 20 0 19 -28 28 -43 13z"/>
</g>
</svg>
